<?xml version="1.0" encoding="UTF-8"?>
<svg id="_图层_1" data-name="图层 1" xmlns="http://www.w3.org/2000/svg" viewBox="0 0 240 240">
  <defs>
    <style>
      .cls-1 {
        stroke-width: 0px;
      }
    </style>
  </defs>
  <path class="cls-1" d="m97.46,236.66c20.85-12.04,41.7-24.08,62.55-36.11,15.44-8.91,24.95-25.39,24.95-43.22v-79.53c-16.63,9.6-33.27,19.21-49.91,28.81v36.31c0,8.91-4.76,17.15-12.48,21.61-29.17,16.84-58.33,33.68-87.5,50.52,12.48,7.2,24.95,14.41,37.43,21.61,7.72,4.46,17.23,4.46,24.95,0Z"/>
  <path class="cls-1" d="m79.99,144.16c0-8.91,4.76-17.15,12.48-21.61,39.15-22.6,78.3-45.2,117.44-67.81-4.33-2.5-8.65-4.99-12.97-7.49-47.3,27.31-94.6,54.62-141.9,81.93-15.44,8.91-24.95,25.39-24.95,43.22v39.77c16.63-9.6,33.27-19.21,49.91-28.81v-39.19Z"/>
  <path class="cls-1" d="m30.09,123.99c0-17.83,9.51-34.3,24.95-43.22,15-8.66,30-17.32,45-25.98v43.8c-15.66,9.04-31.33,18.09-47,27.13-10.36,5.98-18.44,15.24-22.96,26.32v-28.05Z"/>
  <polygon class="cls-1" points="194.94 43.8 194.94 0 115.01 46.15 115.01 89.94 194.94 43.8"/>
  <polygon class="cls-1" points="209.91 50.14 209.91 8.64 198.93 2.31 198.93 43.8 209.91 50.14"/>
</svg>