<?xml version="1.0" encoding="UTF-8"?>
<svg id="_图层_1" data-name="图层 1" xmlns="http://www.w3.org/2000/svg" viewBox="0 0 240 240">
  <defs>
    <style>
      .cls-1 {
        fill: #c6a9fc;
        stroke-width: 0px;
      }
    </style>
  </defs>
  <rect class="cls-1" x="183.27" y="196.36" width="56.73" height="43.64"/>
  <path class="cls-1" d="m240,109.09v65.45h-56.73v-65.45c0-7.07-.52-14.14-1.55-21.13-1.09-7.34-2.74-14.59-4.98-21.66-2.29-7.22-5.18-14.24-8.69-20.95-3.48-6.65-7.56-12.99-12.25-18.85-4.53-5.67-9.63-10.89-15.25-15.48C135.32,6.75,129.64,3.02,123.59,0h29.13C179.74,0,202.7,15.33,217.72,36.28c15.07,21.02,22.28,47.33,22.28,72.81Z"/>
  <path class="cls-1" d="m152.26,36.28C137.24,15.33,114.28,0,87.27,0S37.31,15.33,22.29,36.27C7.21,57.29,0,83.6,0,109.09s7.21,51.79,22.29,72.82c15.02,20.95,37.98,36.27,64.98,36.27,19.94,0,38.13,8.47,52.36,21.82h34.91V109.09c0-25.48-7.21-51.79-22.28-72.81Zm-20.65,53.72c-.34,1.02-1.55,4.26-3.63,9.73-2.06,5.41-4.12,10.82-6.19,16.23-1.88,4.88-3.77,9.77-5.65,14.65-1.54,4.08-3.08,8.17-4.63,12.25-1.62,4.47-3.25,8.95-4.87,13.42-6.15-12.71-12.3-25.42-18.45-38.13-1.23,2.46-2.87,5.95-4.92,10.48-4.12,9.21-8.25,18.43-12.37,27.64-3.04-7.01-6.08-14.03-9.13-21.04-2.33-5.31-4.65-10.63-6.98-15.94-2-4.61-4-9.22-6-13.83-2.52-5.76-5.04-11.53-7.56-17.29h27.69c4.67,10.97,9.34,21.94,14.01,32.91,2.7-5.44,4.57-9.32,5.61-11.63,1.04-2.31,4.8-10.89,11.28-25.73,5.54,12.16,11.09,24.32,16.63,36.48,3.5-8.78,6.95-18.54,10.36-29.27.81-2.58,1.37-4.14,1.68-4.69.31-.55.76-.82,1.34-.82.62,0,1.15.22,1.61.67.45.45.68.97.68,1.55,0,.55-.17,1.33-.51,2.34Z"/>
</svg>