<?xml version="1.0" encoding="UTF-8"?>
<svg xmlns="http://www.w3.org/2000/svg" viewBox="0 0 240 240">
  <defs>
    <style>
      .cls-1 {
        letter-spacing: 0em;
      }

      .cls-2 {
        fill: #e0e0e0;
      }

      .cls-2, .cls-3 {
        stroke-width: 0px;
      }

      .cls-3, .cls-4 {
        fill: #969696;
      }

      .cls-4 {
        font-family: Broadway, Broadway;
        font-size: 32px;
      }

      .cls-5 {
        letter-spacing: 0em;
      }

      .cls-6 {
        letter-spacing: -.06em;
      }
    </style>
  </defs>
  <g id="_图层_2" data-name="图层 2">
    <rect class="cls-2" y="0" width="240" height="240"/>
  </g>
  <g id="_图层_1" data-name="图层 1">
    <text class="cls-4" transform="translate(28.95 193.39)"><tspan x="0" y="0">wiki </tspan><tspan class="cls-6" x="82.39" y="0">T</tspan><tspan class="cls-5" x="102.53" y="0">r</tspan><tspan x="119.56" y="0">u</tspan><tspan class="cls-1" x="143.72" y="0">t</tspan><tspan x="157.84" y="0">h</tspan></text>
    <g>
      <rect class="cls-3" x="149" y="125" width="26" height="20"/>
      <path class="cls-3" d="m175,85v30h-26v-30c0-3.24-.24-6.48-.71-9.68-.5-3.36-1.26-6.69-2.28-9.93-1.05-3.31-2.37-6.53-3.98-9.6-1.59-3.05-3.47-5.95-5.62-8.64-2.08-2.6-4.41-4.99-6.99-7.09-2.4-1.96-5-3.67-7.77-5.05h13.35c12.38,0,22.9,7.03,29.79,16.63,6.91,9.64,10.21,21.69,10.21,33.37Z"/>
      <path class="cls-3" d="m134.79,51.63c-6.88-9.6-17.41-16.63-29.79-16.63s-22.9,7.02-29.78,16.62c-6.91,9.64-10.22,21.69-10.22,33.38s3.31,23.74,10.22,33.38c6.88,9.6,17.41,16.62,29.78,16.62,9.14,0,17.48,3.88,24,10h16v-60c0-11.68-3.3-23.74-10.21-33.37Zm-9.46,24.62c-.16.47-.71,1.95-1.66,4.46-.95,2.48-1.89,4.96-2.84,7.44-.86,2.24-1.73,4.48-2.59,6.71-.71,1.87-1.41,3.74-2.12,5.61-.74,2.05-1.49,4.1-2.23,6.15-2.82-5.83-5.64-11.65-8.46-17.47-.57,1.13-1.32,2.73-2.25,4.81-1.89,4.22-3.78,8.45-5.67,12.67-1.39-3.21-2.79-6.43-4.18-9.64-1.07-2.44-2.13-4.87-3.2-7.31-.92-2.11-1.83-4.23-2.75-6.34-1.16-2.64-2.31-5.28-3.47-7.92h12.69c2.14,5.03,4.28,10.06,6.42,15.08,1.24-2.49,2.1-4.27,2.57-5.33.48-1.06,2.2-4.99,5.17-11.79,2.54,5.57,5.08,11.15,7.62,16.72,1.6-4.02,3.19-8.5,4.75-13.42.37-1.18.63-1.9.77-2.15.14-.25.35-.38.61-.38.28,0,.53.1.74.31.21.21.31.44.31.71,0,.25-.08.61-.23,1.07Z"/>
    </g>
  </g>
</svg>