<?xml version="1.0" encoding="UTF-8"?>
<svg xmlns="http://www.w3.org/2000/svg" viewBox="0 0 240 240">
  <defs>
    <style>
      .cls-1 {
        fill: #2fd151;
      }

      .cls-1, .cls-2 {
        stroke-width: 0px;
      }
    </style>
  </defs>
  <g id="_图层_2" data-name="图层 2">
    <rect class="cls-2" y="0" width="240" height="240"/>
  </g>
  <g id="_图层_1" data-name="图层 1">
    <g>
      <rect class="cls-1" x="162.18" y="170.91" width="37.82" height="29.09"/>
      <path class="cls-1" d="m200,112.73v43.64h-37.82v-43.64c0-4.71-.34-9.42-1.03-14.09-.72-4.89-1.83-9.73-3.32-14.44-1.52-4.81-3.45-9.5-5.79-13.97-2.32-4.43-5.04-8.66-8.17-12.57-3.02-3.78-6.42-7.26-10.16-10.32-3.49-2.85-7.28-5.34-11.31-7.35h19.42c18.01,0,33.31,10.22,43.33,24.19,10.05,14.01,14.86,31.55,14.86,48.54Z"/>
      <path class="cls-1" d="m141.51,64.19c-10.01-13.97-25.32-24.19-43.33-24.19s-33.31,10.22-43.32,24.18c-10.05,14.02-14.86,31.56-14.86,48.55s4.81,34.53,14.86,48.55c10.01,13.96,25.32,24.18,43.32,24.18,13.3,0,25.42,5.65,34.91,14.55h23.27v-87.27c0-16.99-4.81-34.53-14.86-48.54Zm-13.77,35.81c-.23.68-1.03,2.84-2.42,6.49-1.37,3.61-2.75,7.21-4.12,10.82-1.26,3.26-2.51,6.51-3.77,9.77-1.03,2.72-2.06,5.44-3.08,8.17-1.08,2.98-2.16,5.96-3.25,8.95-4.1-8.47-8.2-16.95-12.3-25.42-.82,1.64-1.92,3.97-3.28,6.99-2.75,6.14-5.5,12.29-8.25,18.43-2.03-4.68-4.06-9.35-6.08-14.03-1.55-3.54-3.1-7.08-4.65-10.63-1.33-3.07-2.67-6.15-4-9.22-1.68-3.84-3.36-7.68-5.04-11.53h18.46c3.11,7.31,6.23,14.63,9.34,21.94,1.8-3.63,3.05-6.21,3.74-7.75.69-1.54,3.2-7.26,7.52-17.15,3.7,8.11,7.39,16.21,11.09,24.32,2.33-5.85,4.63-12.36,6.9-19.51.54-1.72.92-2.76,1.12-3.12.21-.36.5-.55.89-.55.41,0,.77.15,1.07.45.3.3.45.64.45,1.04,0,.36-.11.89-.34,1.56Z"/>
    </g>
  </g>
</svg>