<?xml version="1.0" encoding="UTF-8"?>
<svg xmlns="http://www.w3.org/2000/svg" viewBox="0 0 240 240">
  <defs>
    <style>
      .cls-1 {
        fill: #fff;
      }

      .cls-1, .cls-2 {
        stroke-width: 0px;
      }

      .cls-2 {
        fill: #c6a9fc;
      }
    </style>
  </defs>
  <g id="_图层_2" data-name="图层 2">
    <rect class="cls-1" y="0" width="240" height="240"/>
  </g>
  <g id="_图层_1" data-name="图层 1">
    <g>
      <path class="cls-2" d="m102.45,210.82c16.23-9.37,32.46-18.74,48.7-28.11,12.02-6.94,19.43-19.77,19.43-33.65v-61.92c-12.95,7.48-25.9,14.96-38.85,22.43v28.27c0,6.94-3.7,13.35-9.71,16.82-22.71,13.11-45.41,26.22-68.12,39.33,9.71,5.61,19.43,11.22,29.14,16.82,6.01,3.47,13.42,3.47,19.43,0Z"/>
      <path class="cls-2" d="m88.85,138.81c0-6.94,3.7-13.35,9.71-16.82,30.48-17.6,60.96-35.19,91.43-52.79-3.37-1.94-6.73-3.89-10.1-5.83-36.82,21.26-73.65,42.52-110.47,63.78-12.02,6.94-19.43,19.77-19.43,33.65v30.96c12.95-7.48,25.9-14.96,38.85-22.43v-30.51Z"/>
      <path class="cls-2" d="m50,123.11c0-13.88,7.41-26.71,19.43-33.65,11.68-6.74,23.35-13.48,35.03-20.23v34.1c-12.2,7.04-24.39,14.08-36.59,21.12-8.07,4.66-14.35,11.87-17.87,20.49v-21.84Z"/>
      <polygon class="cls-2" points="178.34 60.67 178.34 26.58 116.11 62.51 116.11 96.6 178.34 60.67"/>
      <polygon class="cls-2" points="190 65.61 190 33.31 181.45 28.37 181.45 60.67 190 65.61"/>
    </g>
  </g>
</svg>